<mxfile host="app.diagrams.net" modified="2023-11-05T10:35:00.458Z" agent="Mozilla/5.0 (Windows NT 10.0; Win64; x64) AppleWebKit/537.36 (KHTML, like Gecko) Chrome/119.0.0.0 Safari/537.36" etag="1Oquv8ixPtaII5Ej_Pc7" version="22.0.8" type="github">
  <diagram name="Page-1" id="3FIRqKCgh01RMCNtQAGp">
    <mxGraphModel dx="1194" dy="760" grid="1" gridSize="10" guides="1" tooltips="1" connect="1" arrows="1" fold="1" page="1" pageScale="1" pageWidth="850" pageHeight="1100" math="0" shadow="0">
      <root>
        <mxCell id="0" />
        <mxCell id="1" parent="0" />
        <mxCell id="azvjt9QMGXru3b9_q-DH-2" value="Name" style="ellipse;whiteSpace=wrap;html=1;" vertex="1" parent="1">
          <mxGeometry x="580" y="520" width="120" height="80" as="geometry" />
        </mxCell>
        <mxCell id="azvjt9QMGXru3b9_q-DH-3" value="ID" style="ellipse;whiteSpace=wrap;html=1;" vertex="1" parent="1">
          <mxGeometry x="240" y="20" width="120" height="80" as="geometry" />
        </mxCell>
        <mxCell id="azvjt9QMGXru3b9_q-DH-4" value="Number" style="ellipse;whiteSpace=wrap;html=1;" vertex="1" parent="1">
          <mxGeometry x="250" y="130" width="120" height="80" as="geometry" />
        </mxCell>
        <mxCell id="azvjt9QMGXru3b9_q-DH-5" value="ID" style="ellipse;whiteSpace=wrap;html=1;" vertex="1" parent="1">
          <mxGeometry x="570" y="300" width="120" height="80" as="geometry" />
        </mxCell>
        <mxCell id="azvjt9QMGXru3b9_q-DH-6" value="Name" style="ellipse;whiteSpace=wrap;html=1;" vertex="1" parent="1">
          <mxGeometry x="250" y="230" width="120" height="80" as="geometry" />
        </mxCell>
        <mxCell id="azvjt9QMGXru3b9_q-DH-7" value="Number" style="ellipse;whiteSpace=wrap;html=1;" vertex="1" parent="1">
          <mxGeometry x="570" y="410" width="120" height="80" as="geometry" />
        </mxCell>
        <mxCell id="azvjt9QMGXru3b9_q-DH-8" value="Salary" style="ellipse;whiteSpace=wrap;html=1;" vertex="1" parent="1">
          <mxGeometry x="250" y="350" width="120" height="80" as="geometry" />
        </mxCell>
        <mxCell id="azvjt9QMGXru3b9_q-DH-22" style="edgeStyle=orthogonalEdgeStyle;rounded=0;orthogonalLoop=1;jettySize=auto;html=1;entryX=0;entryY=0.5;entryDx=0;entryDy=0;" edge="1" parent="1" source="azvjt9QMGXru3b9_q-DH-9" target="azvjt9QMGXru3b9_q-DH-5">
          <mxGeometry relative="1" as="geometry" />
        </mxCell>
        <mxCell id="azvjt9QMGXru3b9_q-DH-23" style="edgeStyle=orthogonalEdgeStyle;rounded=0;orthogonalLoop=1;jettySize=auto;html=1;entryX=0;entryY=0.5;entryDx=0;entryDy=0;" edge="1" parent="1" source="azvjt9QMGXru3b9_q-DH-9" target="azvjt9QMGXru3b9_q-DH-7">
          <mxGeometry relative="1" as="geometry" />
        </mxCell>
        <mxCell id="azvjt9QMGXru3b9_q-DH-24" style="edgeStyle=orthogonalEdgeStyle;rounded=0;orthogonalLoop=1;jettySize=auto;html=1;" edge="1" parent="1" source="azvjt9QMGXru3b9_q-DH-9" target="azvjt9QMGXru3b9_q-DH-2">
          <mxGeometry relative="1" as="geometry">
            <Array as="points">
              <mxPoint x="470" y="530" />
              <mxPoint x="470" y="560" />
            </Array>
          </mxGeometry>
        </mxCell>
        <mxCell id="azvjt9QMGXru3b9_q-DH-9" value="Departmment" style="rounded=1;whiteSpace=wrap;html=1;" vertex="1" parent="1">
          <mxGeometry x="250" y="500" width="120" height="60" as="geometry" />
        </mxCell>
        <mxCell id="azvjt9QMGXru3b9_q-DH-15" style="edgeStyle=orthogonalEdgeStyle;rounded=0;orthogonalLoop=1;jettySize=auto;html=1;entryX=0;entryY=0.5;entryDx=0;entryDy=0;" edge="1" parent="1" source="azvjt9QMGXru3b9_q-DH-10" target="azvjt9QMGXru3b9_q-DH-3">
          <mxGeometry relative="1" as="geometry">
            <Array as="points">
              <mxPoint x="180" y="270" />
              <mxPoint x="180" y="60" />
            </Array>
          </mxGeometry>
        </mxCell>
        <mxCell id="azvjt9QMGXru3b9_q-DH-16" style="edgeStyle=orthogonalEdgeStyle;rounded=0;orthogonalLoop=1;jettySize=auto;html=1;entryX=0;entryY=0.5;entryDx=0;entryDy=0;" edge="1" parent="1" source="azvjt9QMGXru3b9_q-DH-10" target="azvjt9QMGXru3b9_q-DH-4">
          <mxGeometry relative="1" as="geometry">
            <Array as="points">
              <mxPoint x="180" y="270" />
              <mxPoint x="180" y="170" />
            </Array>
          </mxGeometry>
        </mxCell>
        <mxCell id="azvjt9QMGXru3b9_q-DH-17" style="edgeStyle=orthogonalEdgeStyle;rounded=0;orthogonalLoop=1;jettySize=auto;html=1;entryX=0;entryY=0.5;entryDx=0;entryDy=0;" edge="1" parent="1" source="azvjt9QMGXru3b9_q-DH-10" target="azvjt9QMGXru3b9_q-DH-6">
          <mxGeometry relative="1" as="geometry" />
        </mxCell>
        <mxCell id="azvjt9QMGXru3b9_q-DH-20" style="edgeStyle=orthogonalEdgeStyle;rounded=0;orthogonalLoop=1;jettySize=auto;html=1;entryX=0;entryY=0.5;entryDx=0;entryDy=0;" edge="1" parent="1" target="azvjt9QMGXru3b9_q-DH-9">
          <mxGeometry relative="1" as="geometry">
            <mxPoint x="180" y="560" as="targetPoint" />
            <mxPoint x="80" y="270" as="sourcePoint" />
            <Array as="points">
              <mxPoint x="181" y="270" />
              <mxPoint x="181" y="540" />
            </Array>
          </mxGeometry>
        </mxCell>
        <mxCell id="azvjt9QMGXru3b9_q-DH-10" value="Employee" style="rounded=1;whiteSpace=wrap;html=1;" vertex="1" parent="1">
          <mxGeometry x="10" y="240" width="120" height="60" as="geometry" />
        </mxCell>
        <mxCell id="azvjt9QMGXru3b9_q-DH-18" style="edgeStyle=orthogonalEdgeStyle;rounded=0;orthogonalLoop=1;jettySize=auto;html=1;entryX=0;entryY=0.75;entryDx=0;entryDy=0;entryPerimeter=0;" edge="1" parent="1" source="azvjt9QMGXru3b9_q-DH-10" target="azvjt9QMGXru3b9_q-DH-8">
          <mxGeometry relative="1" as="geometry">
            <Array as="points">
              <mxPoint x="180" y="270" />
              <mxPoint x="180" y="410" />
            </Array>
          </mxGeometry>
        </mxCell>
        <mxCell id="azvjt9QMGXru3b9_q-DH-21" value="" style="endArrow=none;html=1;rounded=0;exitX=1;exitY=0.5;exitDx=0;exitDy=0;" edge="1" parent="1" source="azvjt9QMGXru3b9_q-DH-9">
          <mxGeometry width="50" height="50" relative="1" as="geometry">
            <mxPoint x="370" y="550" as="sourcePoint" />
            <mxPoint x="470" y="530" as="targetPoint" />
          </mxGeometry>
        </mxCell>
      </root>
    </mxGraphModel>
  </diagram>
</mxfile>
